<?xml version="1.0" standalone="no"?>
<!DOCTYPE svg PUBLIC "-//W3C//DTD SVG 20010904//EN"
 "http://www.w3.org/TR/2001/REC-SVG-20010904/DTD/svg10.dtd">
<svg version="1.0" xmlns="http://www.w3.org/2000/svg"
 width="305.000000pt" height="305.000000pt" viewBox="0 0 305.000000 305.000000"
 preserveAspectRatio="xMidYMid meet">
<metadata>
Created by potrace 1.14, written by Peter Selinger 2001-2017
</metadata>
<g transform="translate(0.000000,305.000000) scale(0.100000,-0.100000)"
fill="#000000" stroke="none">
<path d="M1070 2931 c-45 -15 -73 -35 -137 -98 -35 -35 -63 -65 -63 -67 0 -7
-71 -87 -110 -124 -33 -31 -124 -80 -220 -117 -107 -42 -160 -73 -203 -120
-49 -53 -62 -99 -81 -284 -14 -139 -22 -185 -41 -225 -25 -53 -66 -127 -75
-136 -24 -22 -74 -117 -94 -178 -21 -60 -20 -97 3 -163 24 -67 41 -99 112
-209 69 -106 82 -156 104 -415 14 -162 78 -235 275 -310 128 -50 176 -80 253
-156 42 -42 77 -80 77 -84 0 -11 125 -135 137 -135 6 0 13 -5 15 -11 2 -6 31
-17 65 -25 54 -12 73 -12 148 1 48 8 90 17 94 19 4 3 41 12 82 20 87 19 175
20 233 5 126 -33 157 -40 215 -50 112 -18 195 13 281 108 61 66 110 124 110
129 0 8 71 74 80 74 6 0 10 4 10 8 0 9 142 82 159 82 5 0 22 6 38 14 15 8 52
25 81 38 28 12 52 26 52 30 0 5 4 8 10 8 13 0 71 59 89 90 23 40 40 129 46
245 7 115 25 195 60 257 39 71 110 183 117 186 5 2 8 10 8 18 0 8 7 29 16 46
11 20 16 57 16 103 0 63 -4 81 -37 146 -20 41 -40 76 -44 79 -4 3 -11 12 -14
20 -4 8 -16 29 -27 45 -66 101 -86 171 -94 323 -9 160 -33 237 -93 298 -29 29
-206 124 -232 124 -6 0 -19 4 -29 9 -9 6 -38 20 -64 32 -40 19 -148 109 -148
124 0 3 -8 13 -17 23 -10 10 -44 48 -75 84 -32 36 -79 79 -105 94 -45 27 -55
29 -148 28 -63 0 -119 -6 -150 -16 -27 -9 -88 -24 -135 -33 -83 -17 -88 -17
-187 4 -56 11 -114 26 -129 31 -36 14 -202 22 -234 11z m400 -821 c0 -20 -7
-20 -300 -20 -293 0 -300 0 -300 20 0 20 7 20 300 20 293 0 300 0 300 -20z
m810 0 c0 -20 -5 -20 -297 -18 -274 3 -298 4 -301 21 -3 16 16 17 297 17 295
0 301 0 301 -20z m-1080 -635 l0 -585 53 0 c91 0 217 -13 217 -21 0 -5 -71 -9
-157 -9 l-158 0 2 569 c2 314 0 576 -3 584 -4 11 -37 16 -137 21 -194 10 -184
26 16 26 l167 0 0 -585z m270 576 c0 -9 -81 -21 -147 -21 l-43 0 0 -240 0
-240 305 0 305 0 0 226 0 225 23 -3 22 -3 0 -245 0 -245 -350 0 -350 0 -3 278
-2 277 120 0 c66 0 120 -4 120 -9z m540 -576 l0 -585 58 0 c93 0 212 -12 212
-21 0 -5 -70 -9 -155 -9 l-155 0 -2 583 -3 582 -129 8 c-195 12 -191 26 7 27
l167 0 0 -585z m270 576 c0 -9 -81 -21 -147 -21 l-43 0 0 -556 0 -555 -22 3
-23 3 -3 568 -2 567 120 0 c66 0 120 -4 120 -9z m-1160 -621 l0 -570 -127 0
c-151 0 -157 16 -10 26 l97 7 0 553 c0 547 0 554 20 554 20 0 20 -7 20 -570z
m818 -267 l2 -303 -132 0 c-152 1 -157 16 -9 27 l91 6 0 268 0 269 -305 0
-305 0 0 -255 0 -255 -25 0 -25 0 0 275 0 275 353 -2 352 -3 3 -302z m-468
-355 l0 -23 -297 2 c-163 2 -298 5 -301 8 -2 2 -2 11 1 20 6 13 45 15 302 15
l295 0 0 -22z m810 0 l0 -23 -292 2 c-161 2 -296 3 -300 3 -13 0 -9 28 5 33 6
3 141 6 300 6 l287 1 0 -22z"/>
</g>
</svg>
